# AST/ASF file generated using VICON BodyLanguage
# -----------------------------------------------
:version 1.10
:name VICON
:units
  mass 1.0
  length 0.45
  angle deg
:documentation
   .ast/.asf automatically generated from VICON data using
   VICON BodyBuilder and BodyLanguage model FoxedUp or BRILLIANT.MOD
:root
   order TX TY TZ RX RY RZ
   axis XYZ
   position 0 0 0  
   orientation 0 0 0 
:bonedata
  begin
     id 1 
     name lhipjoint
     direction 0.623415 -0.642378 0.445763 
     length 2.49859 
     axis 0 0 0  XYZ
  end
  begin
     id 2 
     name lfemur
     direction 0.34202 -0.939693 0  
     length 6.69689  
     axis 0 0 20  XYZ
    dof rx ry rz
    limits (-160.0 20.0)
           (-70.0 70.0)
           (-60.0 70.0)
  end
  begin
     id 3 
     name ltibia
     direction 0.34202 -0.939693 0   
     length 7.37574   
     axis 0 0 20   XYZ
    dof rx
    limits (-10.0 170.0)
  end
  begin
     id 4 
     name lfoot
     direction 0.084323 -0.231675 0.969132   
     length 2.09111   
     axis -90 7.62852e-016 20   XYZ
    dof rx rz
    limits (-45.0 90.0)
           (-70.0 20.0)
  end
  begin
     id 5 
     name ltoes
     direction 1.5357e-011 -4.21957e-011 1   
     length 1.04989   
     axis -90 7.62852e-016 20   XYZ
    dof rx
    limits (-90.0 20.0)
  end
  begin
     id 6 
     name rhipjoint
     direction -0.605402 -0.653903 0.45376   
     length 2.45455  
     axis 0 0 0  XYZ 
  end
  begin
     id 7 
     name rfemur
     direction -0.34202 -0.939693 0   
     length 6.64523   
     axis 0 0 -20   XYZ
    dof rx ry rz
    limits (-160.0 20.0)
           (-70.0 70.0)
           (-70.0 60.0)
  end
  begin
     id 8 
     name rtibia
     direction -0.34202 -0.939693 0   
     length 7.3339   
     axis 0 0 -20   XYZ
    dof rx
    limits (-10.0 170.0)
 end
 begin
     id 9 
     name rfoot
     direction -0.120854 -0.332043 0.93549   
     length 2.23135  
     axis -90 -7.62852e-016 -20   XYZ
    dof rx rz
    limits (-45.0 90.0)
           (-20.0 70.0)
  end
  begin
     id 10 
     name rtoes
     direction -1.53563e-011 -4.21914e-011 1   
     length 1.10614   
     axis -90 -7.62852e-016 -20   XYZ
    dof rx
    limits (-90.0 20.0)
  end
  begin
     id 11 
     name lowerback
     direction 0.0319682 0.998615 -0.0417941   
     length 2.02718   
     axis 0 0 0   XYZ
    dof rx ry rz
    limits (-20.0 45.0)
           (-30.0 30.0)
           (-30.0 30.0)
  end
  begin
     id 12 
     name upperback
     direction 7.63181e-005 0.995808 0.0914691   
     length 1.97539   
     axis 0 0 0   XYZ
    dof rx ry rz
    limits (-20.0 45.0)
           (-30.0 30.0)
           (-30.0 30.0)
  end
  begin
     id 13 
     name thorax
     direction -0.016423 0.993627 0.111514   
     length 2.00349   
     axis 0 0 0   XYZ
    dof rx ry rz
    limits (-20.0 45.0)
           (-30.0 30.0)
           (-30.0 30.0)
  end
  begin
     id 14 
     name lowerneck
     direction -0.174763 0.981668 -0.0760716   
     length 1.71436   
     axis 0 0 0   XYZ
    dof rx ry rz
    limits (-20.0 45.0)
           (-30.0 30.0)
           (-30.0 30.0)
  end
  begin
     id 15 
     name upperneck
     direction 0.345458 0.934587 -0.0848868   
     length 1.72805   
     axis 0 0 0   XYZ
    dof rx ry rz
    limits (-20.0 45.0)
           (-30.0 30.0)
           (-30.0 30.0)
  end
  begin
     id 16
     name head
     direction 0.13001 0.989848 -0.0574291  
     length 1.767  
     axis 0 0 0   XYZ
    dof rx ry rz
    limits (-20.0 45.0)
           (-30.0 30.0)
           (-30.0 30.0)
  end
  begin
     id 17 
     name lclavicle
     direction 0.952951 0.290122 0.0878234  
     length 3.54654  
     axis 0 0 0   XYZ
    dof ry rz
    limits (-20.0 10.0)
           (0.0 20.0)
  end
  begin
     id 18 
     name lhumerus
     direction 1 -4.48957e-011 -4.56525e-028   
     length 5.19807   
     axis 180 -30 -90   XYZ
    dof rx ry rz
    limits (-60.0 90.0)
           (-90.0 90.0)
           (-90.0 90.0)
  end
  begin
     id 19
     name lradius
     direction 1 -4.48979e-011 -2.0317e-027   
     length 3.0937   
     axis 180 -30 -90   XYZ
    dof rx
    limits (-10.0 170.0)
  end
  begin
     id 20
     name lwrist
     direction 1 -4.48953e-011 -3.05809e-027   
     length 1.54685   
     axis 8.48514e-016 90 90   XYZ
    dof ry
    limits (-180.0 0.0)
 end
  begin
     id 21 
     name lhand
     direction 1 -4.48952e-011 -6.11639e-027   
     length 0.672632   
     axis 3.9013e-015 90 90   XYZ
    dof rx rz
    limits (-90.0 90.0)
           (-45.0 45.0)
  end
  begin
     id 22 
     name lfingers
     direction 1 -4.48925e-011 -1.22426e-026   
     length 0.542293   
     axis 7.80276e-015 90 90   XYZ
    dof rx
    limits (0.0 90.0)
  end
  begin
     id 23
     name lthumb
     direction 0.707107 -6.3486e-011 0.707107   
     length 0.778628   
     axis -90 45 5.37419e-014   XYZ
    dof rx rz
    limits (-45.0 45.0)
           (-45.0 45.0)
  end
  begin
     id 24 
     name rclavicle
     direction -0.960732 0.273675 -0.0457849   
     length 3.52079  
     axis 0 0 0   XYZ 
    dof ry rz
    limits (-10.0 20.0)
           (-20.0 0.0)
  end
  begin
     id 25 
     name rhumerus
     direction -1 -4.48976e-011 -1.63613e-027  
     length 5.45222   
     axis 180 30 90   XYZ
    dof rx ry rz
    limits (-90.0 60.0)
           (-90.0 90.0)
           (-90.0 90.0)
  end
  begin
     id 26 
     name rradius
     direction -1 -4.48957e-011 -7.00033e-028   
     length 3.01284   
     axis 180 30 90   XYZ
    dof rx
    limits (-10.0 170.0)
  end
  begin
     id 27 
     name rwrist
     direction -1 -4.48983e-011 -3.05543e-027   
     length 1.50642   
     axis 8.48514e-016 -90 -90   XYZ
    dof ry
    limits (-180.0 0.0)
  end
  begin
     id 28
     name rhand
     direction -1 -4.48984e-011 -6.11072e-027   
     length 0.622296   
     axis 3.9013e-015 -90 -90   XYZ
    dof rx rz
    limits (-90.0 90.0)
           (-45.0 45.0)
  end
  begin
     id 29
     name rfingers
     direction -1 -4.48865e-011 -1.22637e-026   
     length 0.501711   
     axis 7.80276e-015 -90 -90   XYZ
    dof rx
    limits (0.0 90.0)
  end
  begin
     id 30
     name rthumb
     direction -0.707107 -6.34932e-011 0.707107   
     length 0.72036   
     axis -90 -45 -5.37419e-014   XYZ
    dof rx rz
    limits (-45.0 45.0)
           (-45.0 45.0)
  end
:hierarchy
  begin
    root lhipjoint rhipjoint lowerback
    lhipjoint lfemur
    lfemur ltibia
    ltibia lfoot
    lfoot ltoes
    rhipjoint rfemur
    rfemur rtibia
    rtibia rfoot
    rfoot rtoes
    lowerback upperback
    upperback thorax
    thorax lowerneck lclavicle rclavicle
    lowerneck upperneck
    upperneck head
    lclavicle lhumerus
    lhumerus lradius
    lradius lwrist
    lwrist lhand lthumb
    lhand lfingers
    rclavicle rhumerus
    rhumerus rradius
    rradius rwrist
    rwrist rhand rthumb
    rhand rfingers
  end

#!OML:ASF H:\Not Pregnant\Project 1\Capture day 1\Session 1\non-pregnant.ASF
:FULLY-SPECIFIED
:DEGREES
168
root -3.48124 14.4848 36.0943 182.891 -45.7577 -166.545
lowerback -4.6448 -2.81036 9.55182
upperback -6.57988 -4.37111 4.5665
thorax -4.62211 -2.74764 -0.536193
lowerneck -1.81412 0.476047 -26.3968
upperneck 9.39294 -1.09301 28.3755
head 3.13038 -0.714042 14.3159
rclavicle 1.75676e-014 -2.78299e-015
rhumerus -73.5178 13.6227 -82.1879
rradius 144.875
rwrist -16.3362
rhand -14.4786 -5.04417
rfingers 7.12502
rthumb 11.6676 -34.6993
lclavicle 1.75676e-014 -2.78299e-015
lhumerus -46.1049 -20.0845 105.829
lradius 71.6552
lwrist 38.3066
lhand -11.3772 -17.2729
lfingers 7.12502
lthumb 14.6571 12.189
rfemur -12.6397 0.500837 17.4839
rtibia 41.365
rfoot -30.3274 -3.01437
rtoes -41.8014
lfemur -49.6165 24.7073 -16.3245
ltibia 64.7362
lfoot -26.3394 15.1814
ltoes -14.8265
169
root -3.60373 14.488 36.1076 182.845 -47.185 -166.651
lowerback -4.74604 -2.9595 9.32257
upperback -6.71277 -4.57071 4.61651
thorax -4.69826 -2.84244 -0.35704
lowerneck -1.37845 0.327007 -26.5858
upperneck 9.23674 -1.34045 28.1475
head 3.08649 -0.868778 14.2417
rclavicle 5.75233e-014 2.0276e-014
rhumerus -73.7713 13.4921 -81.971
rradius 144.924
rwrist -16.2633
rhand -14.8747 -5.19206
rfingers 7.12502
rthumb 11.2856 -34.8684
lclavicle 5.75233e-014 2.0276e-014
lhumerus -46.2959 -20.2578 106.331
lradius 71.9116
lwrist 38.1973
lhand -11.6128 -17.2133
lfingers 7.12502
lthumb 14.4301 12.2651
rfemur -12.8883 0.775831 17.1746
rtibia 43.061
rfoot -28.8877 -3.95963
rtoes -42.8303
lfemur -49.2184 23.3427 -16.7994
ltibia 64.4972
lfoot -26.8155 15.0044
ltoes -14.8126
170
root -3.72691 14.4936 36.1237 182.817 -48.6122 -166.767
lowerback -4.80404 -3.09386 9.07954
upperback -6.85945 -4.74374 4.66498
thorax -4.80867 -2.92435 -0.168179
lowerneck -0.918499 0.169083 -26.7853
upperneck 9.07101 -1.60883 27.9213
head 3.042 -1.03541 14.1705
rclavicle 1.31521e-013 0
rhumerus -74.0229 13.3375 -81.7447
rradius 144.969
rwrist -16.2141
rhand -15.2915 -5.37785
rfingers 7.12502
rthumb 10.8836 -35.0758
lclavicle 1.31521e-013 0
lhumerus -46.264 -20.0703 106.432
lradius 72.1269
lwrist 39.6416
lhand -9.27631 -17.1374
lfingers 7.12502
lthumb 16.6804 12.1659
rfemur -13.4469 1.07285 16.8707
rtibia 45.2434
rfoot -27.1348 -4.73264
rtoes -43.6983
lfemur -48.7739 21.9167 -17.2687
ltibia 64.2072
lfoot -27.27 14.867
ltoes -14.7571
171
root -3.84954 14.5002 36.1424 182.82 -50.0165 -166.914
lowerback -4.79956 -3.21959 8.8053
upperback -7.00741 -4.89578 4.71878
thorax -4.9492 -2.99392 0.0479874
lowerneck -0.513371 -0.00854139 -27.0227
upperneck 8.92798 -1.89847 27.7106
head 3.02092 -1.20946 14.1156
rclavicle -1.0066e-013 -4.41302e-014
rhumerus -74.2251 13.1953 -81.5075
rradius 145.005
rwrist -16.2061
rhand -15.7217 -5.60854
rfingers 7.12502
rthumb 10.4686 -35.3279
lclavicle -1.0066e-013 -4.41302e-014
lhumerus -46.247 -19.9504 106.615
lradius 72.3142
lwrist 40.7198
lhand -7.50367 -17.0121
lfingers 7.12502
lthumb 18.3864 12.1389
rfemur -14.3575 1.37643 16.5539
rtibia 47.9347
rfoot -24.9922 -5.25518
rtoes -44.3036
lfemur -48.2936 20.4569 -17.7427
ltibia 63.8807
lfoot -27.7016 14.7603
ltoes -14.6129
172
root -3.9706 14.5058 36.1632 182.879 -51.3779 -167.137
lowerback -4.72675 -3.32276 8.47151
upperback -7.15218 -5.00642 4.75031
thorax -5.11691 -3.03891 0.278155
lowerneck -0.11632 -0.203985 -27.2615
upperneck 8.78377 -2.21995 27.5308
head 3.0108 -1.39865 14.0743
rclavicle 1.56493e-013 -1.59028e-015
rhumerus -74.3886 13.0233 -81.2807
rradius 145.039
rwrist -16.2526
rhand -16.1705 -5.89233
rfingers 7.12502
rthumb 10.0356 -35.6331
lclavicle 1.56493e-013 -1.59028e-015
lhumerus -46.2348 -19.8703 106.792
lradius 72.4866
lwrist 41.7568
lhand -5.75973 -16.8511
lfingers 7.12502
lthumb 20.0633 12.133
rfemur -15.6251 1.65407 16.1902
rtibia 51.1106
rfoot -22.3748 -5.50417
rtoes -44.5778
lfemur -47.7763 18.9918 -18.2469
ltibia 63.5346
lfoot -28.1057 14.6924
ltoes -14.4185
173
root -4.08902 14.5088 36.1851 183.028 -52.6858 -167.484
lowerback -4.57894 -3.40991 8.04588
upperback -7.28113 -5.08371 4.75638
thorax -5.3002 -3.06014 0.536211
lowerneck 0.239815 -0.423729 -27.5235
upperneck 8.63861 -2.57404 27.4009
head 3.01861 -1.60142 14.0589
rclavicle 4.23411e-014 -2.70347e-014
rhumerus -74.4963 12.8353 -81.0749
rradius 145.081
rwrist -16.3524
rhand -16.6174 -6.22484
rfingers 7.12502
rthumb 9.60453 -35.9859
lclavicle 4.23411e-014 -2.70347e-014
lhumerus -46.3005 -19.9673 107.107
lradius 72.661
lwrist 42.1729
lhand -5.05007 -16.7908
lfingers 7.12502
lthumb 20.7453 12.1204
rfemur -17.2379 1.92717 15.7571
rtibia 54.7003
rfoot -19.2211 -5.50188
rtoes -44.4023
lfemur -47.2268 17.5467 -18.8058
ltibia 63.1873
lfoot -28.4972 14.638
ltoes -14.1337
174
root -4.20415 14.5075 36.207 183.318 -53.9383 -168.018
lowerback -4.3562 -3.47529 7.50175
upperback -7.39261 -5.12077 4.70948
thorax -5.49747 -3.05244 0.807788
lowerneck 0.585932 -0.666639 -27.7841
upperneck 8.46565 -2.96627 27.339
head 3.03301 -1.82177 14.0707
rclavicle -5.01931e-015 -3.65764e-014
rhumerus -74.5674 12.5943 -80.9185
rradius 145.139
rwrist -16.4916
rhand -17.0672 -6.58699
rfingers 7.12502
rthumb 9.17047 -36.3676
lclavicle -5.01931e-015 -3.65764e-014
lhumerus -46.522 -20.3568 107.633
lradius 72.8644
lwrist 41.6781
lhand -5.90908 -16.9329
lfingers 7.12502
lthumb 19.9198 12.0662
rfemur -19.1591 2.20204 15.2257
rtibia 58.6007
rfoot -15.5614 -5.25984
rtoes -43.689
lfemur -46.6518 16.1484 -19.4559
ltibia 62.8551
lfoot -28.8805 14.5891
ltoes -13.8173
175
root -4.31507 14.5003 36.2278 183.77 -55.1384 -168.771
lowerback -4.05592 -3.53262 6.80935
upperback -7.47093 -5.13838 4.6244
thorax -5.69101 -3.02291 1.12385
lowerneck 0.901971 -0.931348 -28.0663
upperneck 8.24201 -3.38139 27.3414
head 3.04798 -2.05026 14.1118
rclavicle -7.75757e-014 4.21423e-014
rhumerus -74.5697 12.3329 -80.7948
rradius 145.224
rwrist -16.6423
rhand -17.4851 -6.95784
rfingers 7.12502
rthumb 8.76728 -36.7557
lclavicle -7.75757e-014 4.21423e-014
lhumerus -46.8374 -20.9326 108.278
lradius 73.1243
lwrist 40.5409
lhand -7.84507 -17.1411
lfingers 7.12502
lthumb 18.0579 12.0406
rfemur -21.3359 2.49126 14.5894
rtibia 62.6971
rfoot -11.5892 -4.65757
rtoes -42.2666
lfemur -46.0525 14.8152 -20.2061
ltibia 62.5514
lfoot -29.2605 14.5324
ltoes -13.4898
176
root -4.42153 14.4866 36.2463 184.387 -56.2917 -169.745
lowerback -3.67845 -3.56643 5.98543
upperback -7.52301 -5.12028 4.47676
thorax -5.89276 -2.96521 1.45065
lowerneck 1.28302 -1.20683 -28.3161
upperneck 7.906 -3.82069 27.4016
head 3.02893 -2.29187 14.1667
rclavicle -1.35174e-014 7.31528e-014
rhumerus -74.5676 11.9957 -80.7634
rradius 145.353
rwrist -16.7792
rhand -17.9167 -7.30286
rfingers 7.12502
rthumb 8.35072 -37.1178
lclavicle -1.35174e-014 7.31528e-014
lhumerus -47.2197 -21.6032 108.886
lradius 73.4704
lwrist 39.3796
lhand -9.86573 -17.268
lfingers 7.12502
lthumb 16.1129 12.0822
rfemur -23.7042 2.78918 13.861
rtibia 66.8737
rfoot -7.74637 -3.57417
rtoes -40.1988
lfemur -45.4321 13.565 -21.0508
ltibia 62.2843
lfoot -29.6229 14.4832
ltoes -13.301
177
root -4.5237 14.4665 36.262 185.166 -57.4053 -170.935
lowerback -3.22923 -3.59205 5.0172
upperback -7.53512 -5.09253 4.30133
thorax -6.08292 -2.89048 1.83073
lowerneck 1.70134 -1.48422 -28.5658
upperneck 7.44073 -4.25507 27.5037
head 2.96863 -2.52999 14.236
rclavicle -2.63887e-014 -4.29375e-014
rhumerus -74.5065 11.642 -80.778
rradius 145.52
rwrist -16.8872
rhand -18.3411 -7.59084
rfingers 7.12502
rthumb 7.94109 -37.4217
lclavicle -2.63887e-014 -4.29375e-014
lhumerus -47.6708 -22.3788 109.537
lradius 73.9083
lwrist 37.8722
lhand -12.4707 -17.3031
lfingers 7.12502
lthumb 13.6034 12.2324
rfemur -26.196 3.0854 13.0583
rtibia 71.026
rfoot -4.56706 -1.89145
rtoes -37.7015
lfemur -44.7876 12.4045 -21.9769
ltibia 62.0559
lfoot -29.9752 14.4167
ltoes -13.2119
178
root -4.62228 14.4414 36.2737 186.074 -58.4923 -172.305
lowerback -2.70615 -3.59917 3.94149
upperback -7.51618 -5.04669 4.0914
thorax -6.27813 -2.79767 2.23844
lowerneck 2.20358 -1.7569 -28.7878
upperneck 6.83196 -4.68532 27.6344
head 2.85437 -2.76793 14.3096
rclavicle 1.70458e-014 -1.90833e-014
rhumerus -74.4307 11.2399 -80.8698
rradius 145.731
rwrist -16.9335
rhand -18.7757 -7.78904
rfingers 7.12502
rthumb 7.52168 -37.6353
lclavicle 1.70458e-014 -1.90833e-014
lhumerus -47.9238 -22.8244 109.703
lradius 74.4668
lwrist 38.0744
lhand -12.4614 -17.2854
lfingers 7.12502
lthumb 13.6124 12.2495
rfemur -28.7473 3.37687 12.2252
rtibia 75.0608
rfoot -2.39476 0.323202
rtoes -35.0683
lfemur -44.1081 11.3328 -22.9508
ltibia 61.8601
lfoot -30.3236 14.3208
ltoes -13.2159
179
root -4.71812 14.4129 36.2815 187.051 -59.5733 -173.776
lowerback -2.10286 -3.63467 2.78465
upperback -7.44967 -5.0488 3.92948
thorax -6.4603 -2.71951 2.74727
lowerneck 2.62882 -2.02069 -29.1129
upperneck 6.14547 -5.06431 27.781
head 2.72318 -2.97376 14.4113
rclavicle 1.93815e-015 1.59028e-015
rhumerus -74.2353 10.9681 -80.9859
rradius 145.97
rwrist -16.9269
rhand -19.1966 -7.88655
rfingers 7.12502
rthumb 7.11533 -37.7469
lclavicle 1.93815e-015 1.59028e-015
lhumerus -48.0898 -23.1468 109.792
lradius 75.1103
lwrist 38.3575
lhand -12.4296 -17.2763
lfingers 7.12502
lthumb 13.643 12.2566
rfemur -31.3197 3.64161 11.4303
rtibia 78.9038
rfoot -1.28001 2.87813
rtoes -32.5904
lfemur -43.3927 10.3342 -23.9198
ltibia 61.6911
lfoot -30.6653 14.1848
ltoes -13.2871
180
root -4.81231 14.3826 36.2852 188.076 -60.6755 -175.326
lowerback -1.42942 -3.71104 1.54899
upperback -7.32342 -5.11863 3.84514
thorax -6.60607 -2.66596 3.38714
lowerneck 2.90827 -2.28897 -29.5994
upperneck 5.42208 -5.40028 27.9482
head 2.60398 -3.14792 14.5546
rclavicle -3.51352e-014 2.46493e-014
rhumerus -73.8797 10.8652 -81.0971
rradius 146.227
rwrist -16.8358
rhand -19.5754 -7.85091
rfingers 7.12502
rthumb 6.74973 -37.7233
lclavicle -3.51352e-014 2.46493e-014
lhumerus -48.1122 -23.3046 109.809
lradius 75.8218
lwrist 38.6986
lhand -12.3694 -17.2684
lfingers 7.12502
lthumb 13.701 12.2606
rfemur -33.8754 3.84114 10.7162
rtibia 82.5035
rfoot -1.00201 5.48609
rtoes -30.4899
lfemur -42.6284 9.37545 -24.8627
ltibia 61.5403
lfoot -31.0014 14.0072
ltoes -13.4009
181
root -4.90612 14.3519 36.2851 189.075 -61.8399 -176.86
lowerback -0.690385 -3.8024 0.344368
upperback -7.1791 -5.22487 3.79025
thorax -6.76993 -2.63056 4.05072
lowerneck 3.21534 -2.53521 -30.1575
upperneck 4.63699 -5.70929 28.1484
head 2.46088 -3.30965 14.7291
rclavicle -1.19022e-013 2.8625e-014
rhumerus -73.4911 10.8092 -81.2825
rradius 146.503
rwrist -16.6126
rhand -19.9016 -7.69037
rfingers 7.12502
rthumb 6.43485 -37.5726
lclavicle -1.19022e-013 2.8625e-014
lhumerus -48.1172 -23.3889 109.782
lradius 76.5915
lwrist 39.0791
lhand -12.2724 -17.2382
lfingers 7.12502
lthumb 13.7945 12.2844
rfemur -36.3959 3.94324 10.1656
rtibia 85.8257
rfoot -1.21571 7.81129
rtoes -28.8315
lfemur -41.8223 8.41322 -25.7215
ltibia 61.4103
lfoot -31.3362 13.7799
ltoes -13.5172
